<svg height="448pt" viewBox="-40 0 448 448" width="448pt" xmlns="http://www.w3.org/2000/svg"><path d="m328 0h-288c-22.082031.0273438-39.9726562 17.917969-40 40v328.886719c10.503906-10.800781 24.933594-16.890625 40-16.886719h288c15.066406-.003906 29.496094 6.085938 40 16.886719v-328.886719c-.027344-22.082031-17.917969-39.9726562-40-40zm0 0"/><path d="m48 408c0 4.417969-3.582031 8-8 8s-8-3.582031-8-8 3.582031-8 8-8 8 3.582031 8 8zm0 0"/><path d="m288 400h48v16h-48zm0 0"/><path d="m192 406.113281 4.945312 9.886719h38.109376l4.945312-9.886719v-6.113281h-48zm0 0"/><path d="m328 368h-288c-22.089844 0-40 17.910156-40 40s17.910156 40 40 40h288c22.089844 0 40-17.910156 40-40s-17.910156-40-40-40zm-288 64c-13.253906 0-24-10.746094-24-24s10.746094-24 24-24 24 10.746094 24 24-10.746094 24-24 24zm56-16h-16v-16h16zm32 0h-16v-16h16zm32 0h-16v-16h16zm96-8c.011719 1.238281-.261719 2.460938-.800781 3.574219l-8 16c-1.359375 2.726562-4.152344 4.441406-7.199219 4.425781h-48c-3.046875.015625-5.839844-1.699219-7.199219-4.425781l-8-16c-.539062-1.113281-.8125-2.335938-.800781-3.574219v-16c0-4.417969 3.582031-8 8-8h64c4.417969 0 8 3.582031 8 8zm96 16c0 4.417969-3.582031 8-8 8h-64c-4.417969 0-8-3.582031-8-8v-32c0-4.417969 3.582031-8 8-8h64c4.417969 0 8 3.582031 8 8zm0 0"/></svg>