<svg id="Capa_1" enable-background="new 0 0 512 512" height="512" viewBox="0 0 512 512" width="512" xmlns="http://www.w3.org/2000/svg"><g><path d="m482 497v-249.145c-3.052-1.088-6.101-2.221-8.877-3.959l-217.123-135.073-217.152 135.088c-2.758 1.73-5.801 2.862-8.848 3.948v249.141c0 8.401 6.599 15 15 15h422c8.401 0 15-6.599 15-15zm-226-77c-24.814 0-45-20.186-45-45s20.186-45 45-45 45 20.186 45 45-20.186 45-45 45zm74.209-98.013c-5.859 5.859-15.352 5.859-21.211 0-28.359-28.359-77.622-28.359-106.011 0-5.859 5.859-15.352 5.859-21.211 0s-5.859-15.366 0-21.211c39.727-39.697 108.735-39.697 148.433 0 5.859 5.86 5.859 15.352 0 21.211zm42.451-42.392c-5.859 5.859-15.352 5.859-21.211 0-25.517-25.532-59.399-39.595-95.449-39.595s-69.932 14.063-95.449 39.595c-5.859 5.859-15.352 5.859-21.211 0-5.859-5.845-5.859-15.352 0-21.211 31.172-31.201 72.598-48.384 116.66-48.384s85.488 17.183 116.66 48.384c5.86 5.859 5.86 15.366 0 21.211z"/><circle cx="256" cy="375" r="15"/><path d="m263.954 2.285c-4.863-3.047-11.045-3.047-15.908 0l-241 150c-4.38 2.739-7.046 7.544-7.046 12.715v40.752c0 5.449 2.959 10.474 7.734 13.125 4.731 2.622 10.591 2.49 15.22-.41l233.046-145.02 233.046 145.02c4.708 2.95 10.532 2.997 15.22.41 4.775-2.651 7.734-7.676 7.734-13.125v-40.752c0-5.171-2.666-9.976-7.046-12.715z"/></g></svg>