<svg viewBox="-43 0 512 512.00072" xmlns="http://www.w3.org/2000/svg"><path d="m121.316406 496.667969c0 8.46875 6.863282 15.332031 15.332032 15.332031 8.464843 0 15.332031-6.863281 15.332031-15.332031v-73.53125h-30.664063zm0 0"/><path d="m190.351562 332.84375v-233.546875c0-26.664063-10.3125-51.511719-29.039062-69.972656-19.601562-19.316407-46.140625-29.726563-74.644531-29.3125002-36.882813.5351562-66.78125 15.5703122-84.1875 42.3359372-1.621094 2.488282-2.480469 5.390625-2.480469 8.359375v66.527344c0 2.96875.859375 5.871094 2.480469 8.359375 18 27.679688 47.789062 44.765625 80.460937 46.417969v160.835937h107.410156zm-124.070312-233.585938c-8.59375 0-14.957031-7.023437-15.332031-15.332031-.371094-8.277343 7.3125-15.328125 15.332031-15.328125 8.59375 0 14.960938 7.023438 15.332031 15.328125.371094 8.28125-7.3125 15.332031-15.332031 15.332031zm0 0"/><path d="m82.941406 363.507812h107.410156v28.96875h-107.410156zm0 0"/><path d="m423.574219 42.347656c-17.410157-26.765625-47.308594-41.800781-84.191407-42.3359372-28.550781-.4101568-55.042968 10.0000002-74.640624 29.3164062-18.730469 18.457031-29.042969 43.304687-29.042969 69.972656v233.546875h107.410156v-160.835937c32.671875-1.652344 62.460937-18.738281 80.464844-46.417969 1.617187-2.488281 2.476562-5.390625 2.476562-8.359375v-66.527344c0-2.96875-.863281-5.871093-2.476562-8.359375zm-63.804688 56.910156c-8.59375 0-14.960937-7.023437-15.332031-15.332031-.371094-8.277343 7.3125-15.328125 15.332031-15.328125 8.59375 0 14.957031 7.023438 15.332031 15.328125.371094 8.28125-7.3125 15.332031-15.332031 15.332031zm0 0"/><path d="m235.699219 363.507812h107.40625v28.96875h-107.40625zm0 0"/><path d="m274.070312 496.667969c0 8.46875 6.867188 15.332031 15.332032 15.332031 8.46875 0 15.332031-6.863281 15.332031-15.332031v-73.53125h-30.664063zm0 0"/></svg>